# xmcd CD database file
#
# Track frame offsets:
#	150
#	8885
#	18367
#	30656
#	41214
#	51543
#	62158
#	71962
#	83246
#	96182
#	106689
#	119351
#	129698
#	140209
#	150900
#	160485
#	172404
#	183799
#	193132
#	202316
#	211315
#	220686
#	229952
#	243395
#	256550
#	270101
#	282362
#	295830
#	307229
#	318129
#	331445
#	344545
#	356665
#	369601
#
# Disc length: 5092 seconds
#
# Revision: 0
# Processed by: cddbd v1.5.2PL0 Copyright (c) Steve Scherf et al.
# Submitted via: CDex 1.51
#
DISCID=1b13e222
DTITLE=Bonnie Guitar - Only The Moon Man Knows
DYEAR=2012
DGENRE=Country
TTITLE0=Hello,Hello,Please Answer The Phone
TTITLE1=If You See My Love Dancing
TTITLE2=Two Loves Have I
TTITLE3=Clinging Vine
TTITLE4=Dream Dreamers
TTITLE5=Lover Oh Lover
TTITLE6=Open The Door To Your Heart
TTITLE7=My Heart Turned Gypsy
TTITLE8=In The Heart Of A Song
TTITLE9=If You Don't Care
TTITLE10=Only The Moon Man Knows
TTITLE11=I Feel A Heartache Comin' On
TTITLE12=Fool Around 
TTITLE13=Lover Oh Lover 1967
TTITLE14=Hearts Desire
TTITLE15=Shanty Boat
TTITLE16=Please,My Love
TTITLE17=Frantic Party
TTITLE18=You Gave Her Your Kisses
TTITLE19=Where Are The Words
TTITLE20=Heart's Desire 2012
TTITLE21=Innocent Lies
TTITLE22=Everybody Knew But Me
TTITLE23=Don't Keep Me Waitin'
TTITLE24=Don't Bring Me Roses Red
TTITLE25=I Couldn't Believe It Was True
TTITLE26=Ain't You Shamed
TTITLE27=Midget Auto Blues
TTITLE28=Robin In The Pine
TTITLE29=The Cherry Tree
TTITLE30=Cowboy Serenade
TTITLE31=Sailing Thru The Sunny San Juan Isles
TTITLE32=I Lost My Turkey(In The Depot In Albuquerque
TTITLE33=Bronco Buster's Rag
EXTD=YEAR: 2012
EXTT0=
EXTT1=
EXTT2=
EXTT3=
EXTT4=
EXTT5=
EXTT6=
EXTT7=
EXTT8=
EXTT9=
EXTT10=
EXTT11=
EXTT12=
EXTT13=
EXTT14=
EXTT15=
EXTT16=
EXTT17=
EXTT18=
EXTT19=
EXTT20=
EXTT21=
EXTT22=
EXTT23=
EXTT24=
EXTT25=
EXTT26=
EXTT27=
EXTT28=
EXTT29=
EXTT30=
EXTT31=
EXTT32=
EXTT33=
PLAYORDER=
